<svg xmlns="http://www.w3.org/2000/svg" height="96" width="96" version="1.1" xmlns:xlink="http://www.w3.org/1999/xlink" viewBox="0 0 96 96">
 <rect id="blocM" style="stroke:#000;stroke-width:2;fill:#ff0" height="12" width="20" y="83" x="1"/>
 <use xlink:href="#blocM" transform="translate(20)"/>
 <use xlink:href="#blocM" transform="translate(40)"/>
 <use xlink:href="#blocM" transform="translate(10,-12)"/>
 <use xlink:href="#blocM" transform="translate(30,-12)"/>
 <use xlink:href="#blocM" transform="translate(20,-24)"/>
 <path id="blocL" style="stroke:#000;stroke-width:2;fill:#ff0" d="m-19 95h20v-12h-15l-10 12z"/>
 <use xlink:href="#blocL" transform="translate(10,-12)"/>
 <use xlink:href="#blocL" transform="translate(20,-24)"/>
 <use xlink:href="#blocL" transform="translate(30,-36)"/>
 <path id="blocR" style="stroke:#000;stroke-width:2;fill:#ff0" d="m61 95h25l-10-12h-15z"/>
 <use xlink:href="#blocR" transform="translate(-10,-12)"/>
 <use xlink:href="#blocR" transform="translate(-20,-24)"/>
 <use xlink:href="#blocR" transform="translate(-30,-36)"/>
 <path style="stroke:#000;stroke-width:2;fill:#ff0" d="m31 47h15l-15-18-15 18z"/>
 <path style="stroke:#000;stroke-width:.46;fill:#800000" d="m63.6 22.7 5.8 3.4-4.2 5.3-4.2-2.4z"/>
 <path style="stroke:#000;stroke-width:.55;fill:#800000" d="m59.4 28.3 7.3 3.3-4.4 6.9-5.3-2.5z"/>
 <path style="stroke:#000;stroke-width:.64;fill:#800000" d="m55.5 35 8.8 3.2-4.4 8.4-6.4-2.4z"/>
 <path style="stroke:#000;stroke-width:.73;fill:#800000" d="m51.6 43.8 10.3 2.8-4.2 9.9-7.5-2z"/>
 <path style="stroke:#000;stroke-width:.82;fill:#800000" d="m47.9 54.4 11.8 2.1-3.7 11.5-8.5-1.5z"/>
 <path style="stroke:#000;stroke-width:.91;fill:#800000" d="m45.6 66.4 13.2 1.2-3 13.1-9.5-.8z"/>
 <path style="stroke:#000;fill:#800000" d="m44.3 79.6h14.5l-2 14.6h-10.5z"/>
 <path style="stroke:#000;stroke-width:.6;fill:#008000" d="m68.6 16.8 2.7-4 .4-4.43 1.2 2.93 2-.2v-1.91l2.1 2.01 3 .7.4-3.38.9-.12 2 4.4.2 2.2 1.8-2.7-.9-4.04-3.1-3.28-3.2-1.54-3.2.01-3.2.88-3.2 3.25-1.2 3.72z"/>
 <path style="stroke:#000;stroke-width:.6;fill:#008000" d="m65.6 28.3 3.8-3.8 4-5.3.8 5 3.4-1.1 3.6 1.3 1.2-3.4.9 3.7 2.9.2 2.2 2.5 1.4-4.8 1.8 6.6 3.7 3.6.1-7.7-2.3-5-5.2-3.5-5.7-2.1-6.6-.7-5.2.8-4.7 4.5-1.3 4.8z"/>
 <path style="stroke:#000;stroke-width:.6;fill:#008000" d="m65.8 21 3.2-3.5-1-6.5-1-3.48-1.9-.36-1.9-1.71 3.3.37-.2-2.52-4-.79 1.7-.96-5.6-1.42-8.3.152-4.2 2.25-3.2 3.75 7-1.09 4.9-2.16-.9 1.92 4.8-1.25-3.7 3.28 2.3 2.49 4.3.40-2.7 1.83z"/>
 <path style="stroke:#000;stroke-width:.6;fill:#008000" d="m65.7 19.8-4.3-5.7-8.2-4.55-9-1.58-8.2.59-5.9 2.74-2.9 4.5-1.5 7.4 4.8-2.4 3.8-4.9-1.2 5 7.1-3.5v-2.7l3.5-1.7-.9 5.1 4.5.8 2.3-2.8 2 3.2 8.6 2.1 5 5.5z"/>
 <path style="stroke:#000;stroke-width:.6;fill:#008000" d="m65.5 28.3-5.8-1.8-3.1-4 .7 3.2-2.1 1.2-1.3-1.7-1 2.2-2.4 3.4-2.4-2.9-1.1.5.4 4.1.3 3-3.2-2.4-.9-3.1 1.1-4.5 2.2-3.3 3.2-2 3.8-1.2 5.3.9 3.7 2.4z"/>
 <path style="stroke:#000;stroke-width:.6;fill:#008000" d="m64.5 28.3 4.2-.6 2.8 3.5 6.9-.8-5.3 4.2.8 2.1 5.8-1-4 3.4 1.5 4.3 4.6-.2-3.8 2.4.9 1.1 4.8-1.1-.2.9-5.1 3.2-.2 1 2.2.4 1.3-.8-.2 1-3.8 2.3-2 4.8 6.2-3 5.3-4.2 2-4.7.8-6.4-2.9-6.3-3-4.1-6.3-3.2-9.6-2-2.6 1.6z"/>
</svg>
