<svg xmlns="http://www.w3.org/2000/svg" height="96" width="70" version="1.1" viewBox="-35 -96 70 96">
 <path style="stroke:#000;stroke-width:.46;fill:#800000" d="m3.1-72.3 5.8 3.4-4.2 5.3-4.2-2.4z"/>
 <path style="stroke:#000;stroke-width:.55;fill:#800000" d="m-1.1-66.7 7.3 3.3-4.4 6.9-5.3-2.5z"/>
 <path style="stroke:#000;stroke-width:.64;fill:#800000" d="m-5-60 8.8 3.2-4.4 8.4-6.4-2.4z"/>
 <path style="stroke:#000;stroke-width:.73;fill:#800000" d="m-8.9-51.2 10.3 2.8-4.2 9.9-7.5-2z"/>
 <path style="stroke:#000;stroke-width:.82;fill:#800000" d="m-12.6-40.6 11.8 2.1-3.7 11.5-8.5-1.5z"/>
 <path style="stroke:#000;stroke-width:.91;fill:#800000" d="m-14.9-28.6 13.2 1.2-3 13.1-9.5-.8z"/>
 <path style="stroke:#000;fill:#800000" d="m-16.2-15.4h14.5l-2 14.6h-10.5z"/>
 <path style="stroke:#000;stroke-width:.6;fill:#008000" d="m8.1-78.2 2.7-4 .4-4.4 1.2 2.9 2-.2v-1.9l2.1 2 3 .7.4-3.4.9-.1 2 4.4.2 2.2 1.8-2.7-.9-4-3.1-3.3-3.2-1.6h-3.2l-3.2.9-3.2 3.3-1.2 3.7z"/>
 <path style="stroke:#000;stroke-width:.6;fill:#008000" d="m5.1-66.7 3.8-3.8 4-5.3.8 5 3.4-1.1 3.6 1.3 1.2-3.4.9 3.7 2.9.2 2.2 2.5 1.4-4.8 1.8 6.6 3.7 3.6.1-7.7-2.3-5-5.2-3.5-5.7-2.1-6.6-.7-5.2.8-4.7 4.5-1.3 4.8z"/>
 <path style="stroke:#000;stroke-width:.6;fill:#008000" d="m5.3-74 3.2-3.5-1-6.5-1-3.5-1.9-.3-1.9-1.8 3.3.4-.2-2.5-4-.8 1.7-.9-5.6-1.5-8.3.2-4.2 2.2-3.2 3.8 7-1.1 4.9-2.2-.9 2 4.8-1.3-3.7 3.3 2.3 2.5 4.3.4-2.7 1.8z"/>
 <path style="stroke:#000;stroke-width:.6;fill:#008000" d="m5.2-75.2-4.3-5.7-8.2-4.5-9-1.6-8.2.6-5.9 2.7-2.9 4.5-1.5 7.4 4.8-2.4 3.8-4.9-1.2 5 7.1-3.5v-2.7l3.5-1.7-.9 5.1 4.5.8 2.3-2.8 2 3.2 8.6 2.1 5 5.5z"/>
 <path style="stroke:#000;stroke-width:.6;fill:#008000" d="m5-66.7-5.8-1.8-3.1-4 .7 3.2-2.1 1.2-1.3-1.7-1 2.2-2.4 3.4-2.4-2.9-1.1.5.4 4.1.3 3-3.2-2.4-.9-3.1 1.1-4.5 2.2-3.3 3.2-2 3.8-1.2 5.3.9 3.7 2.4z"/>
 <path style="stroke:#000;stroke-width:.6;fill:#008000" d="m4-67.1 3.8-.5 2.5 3.2 6.3-.8-4.8 3.9.7 1.9 5.3-.9-3.6 3 1.3 4 4.2-.2-3.4 2.2.8 1 4.4-1-.2.8-4.7 2.9-.1.9 2 .4 1.2-.8-.2.9-3.5 2.1-1.8 4.4 5.6-2.7 4.9-3.9 1.8-4.2.7-5.8-2.6-5.8-2.8-3.7-5.7-2.9-8.8-1.8-2.3 1.4z"/>
</svg>
