<svg xmlns="http://www.w3.org/2000/svg" height="96" width="96" version="1.1" xmlns:xlink="http://www.w3.org/1999/xlink" viewBox="0 0 96 96">
 <rect id="blocM" style="stroke:#000;stroke-width:2;fill:#ff0" height="12" width="20" y="83" x="18"/>
 <use xlink:href="#blocM" transform="translate(20)" height="100%" width="100%" y="0" x="0"/>
 <use xlink:href="#blocM" transform="translate(40)" height="100%" width="100%" y="0" x="0"/>
 <use xlink:href="#blocM" transform="translate(10,-12)" height="100%" width="100%" y="0" x="0"/>
 <use xlink:href="#blocM" transform="translate(30,-12)" height="100%" width="100%" y="0" x="0"/>
 <use xlink:href="#blocM" transform="translate(20,-24)" height="100%" width="100%" y="0" x="0"/>
 <path id="blocL" style="stroke:#000;stroke-width:2;fill:#ff0" d="m-2 95h20v-12h-15l-10 12z"/>
 <use xlink:href="#blocL" transform="translate(10,-12)" height="100%" width="100%" y="0" x="0"/>
 <use xlink:href="#blocL" transform="translate(20,-24)" height="100%" width="100%" y="0" x="0"/>
 <use xlink:href="#blocL" transform="translate(30,-36)" height="100%" width="100%" y="0" x="0"/>
 <path id="blocR" style="stroke:#000;stroke-width:2;fill:#ff0" d="m78 95h25l-10-12h-15z"/>
 <use xlink:href="#blocR" transform="translate(-10,-12)" height="100%" width="100%" y="0" x="0"/>
 <use xlink:href="#blocR" transform="translate(-20,-24)" height="100%" width="100%" y="0" x="0"/>
 <use xlink:href="#blocR" transform="translate(-30,-36)" height="100%" width="100%" y="0" x="0"/>
 <path style="stroke:#000;stroke-width:2;fill:#ff0" d="m48 47h15l-15-18-15 18z"/>
</svg>
